<svg width="3000" height="1200" xmlns="http://www.w3.org/2000/svg"><g fill="none" fill-rule="evenodd"><path fill="#FFF" d="M0 0h3000v1200H0z"/><rect stroke="#0091FF" stroke-width="10" fill="#FFF" x="143.375" y="96.5" width="1648" height="1005" rx="32"/><rect fill="#0091FF" x="276.319" y="596.5" width="320" height="200" rx="16"/><path d="M392.609 682.04c10.02 0 17.34-5.7 17.34-16.62V639.5h-8.28v25.8c0 5.16-2.16 9.36-9.06 9.36-6.78 0-9-4.2-9-9.36v-25.8h-8.22v25.92c0 10.92 7.38 16.62 17.22 16.62Zm36.96 0c7.56 0 13.26-3.48 13.26-9.72 0-6.18-4.08-8.46-9.12-9.48l-5.7-1.02c-1.98-.42-3.18-1.26-3.18-2.82 0-1.68 1.74-2.82 4.44-2.82 3.3 0 4.92 1.8 4.92 3.96h7.92c0-5.94-4.92-10.38-12.72-10.38-7.92 0-12.42 4.08-12.42 9.18 0 5.76 4.08 8.52 9.12 9.48l5.04.96c2.46.48 3.6 1.44 3.6 3 0 1.62-1.62 2.88-5.16 2.88-3.66 0-5.52-1.86-5.52-4.26h-8.04c.18 6.54 4.5 11.04 13.56 11.04Zm32.16 0c8.04 0 13.14-4.62 13.98-10.26h-7.86c-.6 1.92-2.52 3.6-6.12 3.6-4.62 0-6.78-3-6.84-7.26h21.24V665c0-8.52-5.22-15.24-14.52-15.24-10.02 0-14.94 7.32-14.94 16.2 0 9 5.4 16.08 15.06 16.08Zm6.18-19.26h-12.96c.18-3.54 2.16-6.3 6.66-6.3 4.2 0 6.18 2.76 6.3 6.3Zm21.42 18.72v-15.3c0-5.64 2.76-8.94 7.56-8.94h2.82v-7.44h-2.28c-3.96 0-6.72 2.28-8.1 5.22h-.24l-.6-4.74h-6.78v31.2h7.62Zm-168.96 72v-42h-8.28v42h8.28Zm16.38 0v-17.28c0-4.44 2.58-7.14 6.42-7.14 4.02 0 5.76 2.34 5.76 6.24v18.18h8.04v-20.46c0-6.9-4.44-11.28-11.34-11.28-4.26 0-7.14 1.74-8.88 4.08h-.24l-.6-3.54h-7.2v31.2h8.04Zm45.66 0v-7.02h-3.6c-2.76 0-4.02-1.26-4.02-4.2v-13.14h7.5v-6.84h-7.5v-8.22h-7.74v8.22h-5.4v6.84h5.1v14.88c0 5.52 2.88 9.48 9.78 9.48h5.88Zm19.68.54c8.04 0 13.14-4.62 13.98-10.26h-7.86c-.6 1.92-2.52 3.6-6.12 3.6-4.62 0-6.78-3-6.84-7.26h21.24V737c0-8.52-5.22-15.24-14.52-15.24-10.02 0-14.94 7.32-14.94 16.2 0 9 5.4 16.08 15.06 16.08Zm6.18-19.26h-12.96c.18-3.54 2.16-6.3 6.66-6.3 4.2 0 6.18 2.76 6.3 6.3Zm21.42 18.72v-15.3c0-5.64 2.76-8.94 7.56-8.94h2.82v-7.44h-2.28c-3.96 0-6.72 2.28-8.1 5.22h-.24l-.6-4.74h-6.78v31.2h7.62Zm27.72 0v-24.42h7.44v-6.78h-7.44v-2.64c0-3 1.74-4.26 4.74-4.26h3v-6.9h-3.84c-6.78 0-11.94 4.14-11.94 11.16v2.64h-5.46v6.78h5.46v24.42h8.04Zm21.9.54c4.02 0 6.96-1.5 8.7-3.78h.24l.6 3.24h7.14v-20.64c0-6.36-4.86-11.1-13.26-11.1-8.52 0-12.96 4.74-12.96 10.62h7.56c0-2.22 1.86-4.02 5.22-4.02 3.84 0 5.4 2.04 5.4 4.56v1.74h-6.96c-8.7 0-12.6 4.02-12.6 9.66 0 5.52 3.96 9.72 10.92 9.72Zm1.92-6.36c-3.24 0-4.86-1.56-4.86-3.72 0-2.22 1.68-3.72 5.22-3.72h6.36v1.68c0 3.12-2.52 5.76-6.72 5.76Zm34.98 6.36c8.82 0 13.38-5.28 13.86-12.3h-8.1c-.36 3.12-2.46 5.22-5.94 5.22-4.56 0-6.84-3.18-6.84-9.06 0-5.82 2.28-9.06 6.84-9.06 3.42 0 5.58 2.16 5.88 5.34h8.1c-.42-6.96-4.98-12.42-13.98-12.42-9.78 0-15.06 6.66-15.06 16.14 0 9.6 5.46 16.14 15.24 16.14Zm32.76 0c8.04 0 13.14-4.62 13.98-10.26h-7.86c-.6 1.92-2.52 3.6-6.12 3.6-4.62 0-6.78-3-6.84-7.26h21.24V737c0-8.52-5.22-15.24-14.52-15.24-10.02 0-14.94 7.32-14.94 16.2 0 9 5.4 16.08 15.06 16.08Zm6.18-19.26h-12.96c.18-3.54 2.16-6.3 6.66-6.3 4.2 0 6.18 2.76 6.3 6.3Z" fill="#FFF" fill-rule="nonzero"/><rect stroke="#000" stroke-width="2" fill="#FFF" x="317.319" y="284.5" width="238" height="118" rx="16"/><path d="M366.689 364.5v-16.62h10.2l11.04 16.62h5.7v-.6l-11.28-16.68c5.46-1.56 9.06-5.88 9.06-12.12 0-7.14-4.74-12.6-13.32-12.6h-16.62v42h5.22Zm11.1-21.42h-11.1V327.3h11.1c5.28 0 8.16 2.94 8.16 7.86 0 5.04-2.88 7.92-8.16 7.92Zm34.8 21.96c6.54 0 11.94-3.78 12.78-9.42h-5.04c-.84 3.24-3.72 4.92-7.74 4.92-5.7 0-8.64-4.02-8.64-9.84h21.84v-2.46c0-8.52-4.62-14.94-13.26-14.94-9.48 0-13.86 7.02-13.86 15.9 0 9 4.86 15.84 13.92 15.84Zm7.98-18.54h-16.56c.18-4.8 2.76-8.7 8.52-8.7 5.46 0 8.04 3.84 8.04 8.7Zm21.9 18.54c4.32 0 7.74-1.74 9.6-4.86h.24l.36 4.32h4.26v-20.64c0-5.82-4.14-10.56-12-10.56-6.72 0-11.64 3.9-11.64 9.78h4.86c.06-2.94 2.28-5.46 6.78-5.46 4.98 0 7.08 2.94 7.08 6.36v1.98h-7.56c-9 0-12.66 4.44-12.66 9.6 0 5.34 4.02 9.48 10.68 9.48Zm.9-4.2c-4.44 0-6.48-2.28-6.48-5.34 0-3.6 2.58-5.52 7.56-5.52h7.56v2.64c0 4.44-3.42 8.22-8.64 8.22Zm35.28 4.2c7.98 0 12.06-4.38 12.66-10.86h-5.04c-.42 4.08-3.12 6.42-7.68 6.42-6.3 0-8.76-4.98-8.76-11.4 0-6.3 2.46-11.4 8.76-11.4 4.44 0 7.26 2.46 7.56 6.54h5.04c-.42-6.18-4.38-11.04-12.6-11.04-9.12 0-13.86 6.36-13.86 15.9 0 9.66 4.74 15.84 13.92 15.84Zm35.82-.54v-4.44h-3.6c-2.76 0-4.02-1.26-4.02-4.2V338.1h7.5v-4.26h-7.5v-8.22h-4.92v8.22h-5.22v4.26h5.1v18.18c0 5.1 2.04 8.22 8.1 8.22h4.56Z" fill="#000" fill-rule="nonzero"/><rect stroke="#000" stroke-width="2" fill="#FFF" x="822.319" y="284.5" width="238" height="118" rx="16"/><path d="M871.599 364.5v-37.2h13.02v-4.8h-31.32v4.8h13.02v37.2h5.28Zm27.66-37.02v-5.88h-5.64v5.88h5.64Zm-.3 37.02v-30.66h-5.04v30.66h5.04Zm15.24 13.74v-18h.24c1.62 2.7 4.68 4.8 9.24 4.8 8.64 0 12.96-6.78 13.02-15.84-.06-9.9-4.98-15.9-13.02-15.9-4.56 0-7.62 2.1-9.24 4.8h-.24l-.66-4.26h-4.38v44.4h5.04Zm8.64-17.7c-6.12 0-8.76-5.28-8.76-11.34 0-6.12 2.64-11.4 8.76-11.4 6.36 0 8.76 5.22 8.76 11.4 0 6.12-2.4 11.34-8.76 11.34Zm37.02 3.96v-4.44h-3.6c-2.76 0-4.02-1.26-4.02-4.2V338.1h7.5v-4.26h-7.5v-8.22h-4.92v8.22h-5.22v4.26h5.1v18.18c0 5.1 2.04 8.22 8.1 8.22h4.56Zm16.38.54c4.32 0 7.74-1.74 9.6-4.86h.24l.36 4.32h4.26v-20.64c0-5.82-4.14-10.56-12-10.56-6.72 0-11.64 3.9-11.64 9.78h4.86c.06-2.94 2.28-5.46 6.78-5.46 4.98 0 7.08 2.94 7.08 6.36v1.98h-7.56c-9 0-12.66 4.44-12.66 9.6 0 5.34 4.02 9.48 10.68 9.48Zm.9-4.2c-4.44 0-6.48-2.28-6.48-5.34 0-3.6 2.58-5.52 7.56-5.52h7.56v2.64c0 4.44-3.42 8.22-8.64 8.22Zm28.8 17.4v-18h.24c1.62 2.7 4.68 4.8 9.24 4.8 8.64 0 12.96-6.78 13.02-15.84-.06-9.9-4.98-15.9-13.02-15.9-4.56 0-7.62 2.1-9.24 4.8h-.24l-.66-4.26h-4.38v44.4h5.04Zm8.64-17.7c-6.12 0-8.76-5.28-8.76-11.34 0-6.12 2.64-11.4 8.76-11.4 6.36 0 8.76 5.22 8.76 11.4 0 6.12-2.4 11.34-8.76 11.34Z" fill="#000" fill-rule="nonzero"/><rect stroke="#000" stroke-width="2" fill="#FFF" x="1376.319" y="144.5" width="238" height="118" rx="16"/><path d="M1447.139 224.5v-37.2h13.02v-4.8h-31.32v4.8h13.02v37.2h5.28Zm24 .54c4.32 0 7.74-1.74 9.6-4.86h.24l.36 4.32h4.26v-20.64c0-5.82-4.14-10.56-12-10.56-6.72 0-11.64 3.9-11.64 9.78h4.86c.06-2.94 2.28-5.46 6.78-5.46 4.98 0 7.08 2.94 7.08 6.36v1.98h-7.56c-9 0-12.66 4.44-12.66 9.6 0 5.34 4.02 9.48 10.68 9.48Zm.9-4.2c-4.44 0-6.48-2.28-6.48-5.34 0-3.6 2.58-5.52 7.56-5.52h7.56v2.64c0 4.44-3.42 8.22-8.64 8.22Zm33.9 4.14c4.74 0 7.86-2.22 9.48-5.34h.24l.42 4.86h4.38v-30.66h-5.04v16.86c0 6.18-3 9.78-8.1 9.78-4.86 0-7.08-2.76-7.08-7.56v-19.08h-5.04v19.86c0 7.02 3.96 11.28 10.74 11.28Zm29.76-.48v-14.88c0-7.2 2.64-11.28 8.46-11.28h2.4v-4.86h-2.76c-3.78 0-6.84 2.1-8.1 5.52h-.24l-.42-5.16h-4.38v30.66h5.04Zm23.7-37.02v-5.88h-5.64v5.88h5.64Zm-.3 37.02v-30.66h-5.04v30.66h5.04ZM1973.655 459.485l12.69-38.7v-.45h-3.465l-12.645 38.7v.45h3.42Zm28.485-5.985v-3.33h-2.7c-2.07 0-3.015-.945-3.015-3.15V433.7h5.625v-3.195h-5.625v-6.165h-3.69v6.165h-3.915v3.195h3.825v13.635c0 3.825 1.53 6.165 6.075 6.165h3.42Zm9.855 0v-12.69c0-4.635 2.25-7.335 5.85-7.335 3.51 0 5.085 2.16 5.085 5.67V453.5h3.78v-12.69c0-4.635 2.16-7.335 5.76-7.335 3.51 0 5.085 2.16 5.085 5.67V453.5h3.78v-14.94c0-5.175-2.835-8.46-7.92-8.46-3.87 0-6.21 1.665-7.425 4.005h-.18c-1.215-2.52-3.6-4.005-6.93-4.005-3.555 0-5.67 1.665-6.885 4.005h-.18l-.315-3.6h-3.285V453.5h3.78Zm40.77 10.305v-13.5h.18c1.215 2.025 3.51 3.6 6.93 3.6 6.48 0 9.72-5.085 9.765-11.88-.045-7.425-3.735-11.925-9.765-11.925-3.42 0-5.715 1.575-6.93 3.6h-.18l-.495-3.195h-3.285v33.3h3.78Zm6.48-13.275c-4.59 0-6.57-3.96-6.57-8.505 0-4.59 1.98-8.55 6.57-8.55 4.77 0 6.57 3.915 6.57 8.55 0 4.59-1.8 8.505-6.57 8.505Zm16.74 8.955 12.69-38.7v-.45h-3.465l-12.645 38.7v.45h3.42Zm23.625-5.58c3.24 0 5.805-1.305 7.2-3.645h.18l.27 3.24h3.195v-15.48c0-4.365-3.105-7.92-9-7.92-5.04 0-8.73 2.925-8.73 7.335h3.645c.045-2.205 1.71-4.095 5.085-4.095 3.735 0 5.31 2.205 5.31 4.77v1.485h-5.67c-6.75 0-9.495 3.33-9.495 7.2 0 4.005 3.015 7.11 8.01 7.11Zm.675-3.15c-3.33 0-4.86-1.71-4.86-4.005 0-2.7 1.935-4.14 5.67-4.14h5.67v1.98c0 3.33-2.565 6.165-6.48 6.165Zm21.6 2.745v-33.3h-3.78v33.3h3.78Zm11.43 0v-33.3h-3.78v33.3h3.78Zm16.29.405c4.905 0 8.955-2.835 9.585-7.065h-3.78c-.63 2.43-2.79 3.69-5.805 3.69-4.275 0-6.48-3.015-6.48-7.38h16.38v-1.845c0-6.39-3.465-11.205-9.945-11.205-7.11 0-10.395 5.265-10.395 11.925 0 6.75 3.645 11.88 10.44 11.88ZM2155.59 440h-12.42c.135-3.6 2.07-6.525 6.39-6.525 4.095 0 6.03 2.88 6.03 6.525Zm15.795 23.805 12.735-32.85v-.45h-3.96l-6.75 18.045h-.18l-6.975-18.045h-4.05v.45l9.225 22.23.045.135-3.915 10.035v.45h3.825Zm25.875-9.9c5.985 0 9.045-3.285 9.495-8.145h-3.78c-.315 3.06-2.34 4.815-5.76 4.815-4.725 0-6.57-3.735-6.57-8.55 0-4.725 1.845-8.55 6.57-8.55 3.33 0 5.445 1.845 5.67 4.905h3.78c-.315-4.635-3.285-8.28-9.45-8.28-6.84 0-10.395 4.77-10.395 11.925 0 7.245 3.555 11.88 10.44 11.88Zm22.005 0c3.24 0 5.805-1.305 7.2-3.645h.18l.27 3.24h3.195v-15.48c0-4.365-3.105-7.92-9-7.92-5.04 0-8.73 2.925-8.73 7.335h3.645c.045-2.205 1.71-4.095 5.085-4.095 3.735 0 5.31 2.205 5.31 4.77v1.485h-5.67c-6.75 0-9.495 3.33-9.495 7.2 0 4.005 3.015 7.11 8.01 7.11Zm.675-3.15c-3.33 0-4.86-1.71-4.86-4.005 0-2.7 1.935-4.14 5.67-4.14h5.67v1.98c0 3.33-2.565 6.165-6.48 6.165Zm28.89 2.745v-3.33h-2.7c-2.07 0-3.015-.945-3.015-3.15V433.7h5.625v-3.195h-5.625v-6.165h-3.69v6.165h-3.915v3.195h3.825v13.635c0 3.825 1.53 6.165 6.075 6.165h3.42Zm19.395-11.43v-3.51h-13.77v3.51h13.77Zm11.43 11.43v-33.3h-3.78v33.3h3.78Zm11.655-27.765v-4.41h-4.23v4.41h4.23Zm-.225 27.765v-22.995h-3.78V453.5h3.78Zm11.43 0v-12.69c0-4.635 2.25-7.335 6.075-7.335 3.645 0 5.31 2.07 5.31 5.67V453.5h3.78v-14.94c0-5.265-2.97-8.46-8.055-8.46-3.555 0-5.895 1.665-7.11 4.005h-.18l-.315-3.6h-3.285V453.5h3.78Zm26.595 0v-33.3h-3.78v33.3h3.78Zm14.445 0v-.45l-9.585-12.465 9.315-9.63v-.45h-4.455l-9.72 10.08 10.08 12.915h4.365Zm8.685 0v-4.95h-4.86v4.95h4.86Zm14.58.405c4.95 0 9.09-2.43 9.09-6.66 0-3.96-2.205-5.67-6.525-6.66l-3.6-.675c-2.52-.405-4.005-1.44-4.005-3.24 0-2.25 1.935-3.375 4.725-3.375 2.88 0 5.04 1.305 5.175 4.23h3.69c0-4.59-3.69-7.425-8.865-7.425-5.085 0-8.37 2.745-8.37 6.57 0 3.375 2.07 5.67 5.85 6.435l4.59.855c2.475.54 3.51 1.755 3.51 3.285 0 2.205-2.025 3.285-5.265 3.285-3.285 0-5.625-1.575-5.625-4.635h-3.78c.135 5.04 3.96 8.01 9.405 8.01Zm23.985 0c7.2 0 10.395-5.31 10.395-11.88 0-6.615-3.285-11.925-10.395-11.925-7.11 0-10.395 5.31-10.395 11.925 0 6.615 3.195 11.88 10.395 11.88Zm0-3.375c-4.635 0-6.57-3.555-6.57-8.505 0-4.905 1.89-8.55 6.57-8.55 4.68 0 6.57 3.6 6.57 8.55 0 4.95-1.89 8.505-6.57 8.505Zm25.335 3.375c5.985 0 9.045-3.285 9.495-8.145h-3.78c-.315 3.06-2.34 4.815-5.76 4.815-4.725 0-6.57-3.735-6.57-8.55 0-4.725 1.845-8.55 6.57-8.55 3.33 0 5.445 1.845 5.67 4.905h3.78c-.315-4.635-3.285-8.28-9.45-8.28-6.84 0-10.395 4.77-10.395 11.925 0 7.245 3.555 11.88 10.44 11.88Zm19.575-.405v-33.3h-3.78v33.3h3.78Zm14.445 0v-.45l-9.585-12.465 9.315-9.63v-.45h-4.455l-9.72 10.08 10.08 12.915h4.365ZM1924.44 425.229c0 .159-.16.159-.16.159h-.159c-.159 0-.159-.16-.318-.318 0 0-.159-.16-.159-.318 0-.16 0-.16.16-.16l.317.16c.16.159.318.318.318.477m-2.86-1.59c0-.794-.318-1.271-.795-1.271 0 0 0 .159-.16.159v.318h.478c0 .318.159.477.159.794h.317m5.563-.794c.318 0 .477.318.635.794h.318c-.159-.159-.159-.317-.159-.476 0-.16 0-.318-.159-.477-.158-.16-.317-.318-.476-.318 0 0-.16.159-.318.159 0 .159.159.159.159.318m-4.768 2.543c-.159 0-.159 0-.159-.16 0-.158 0-.317.159-.476.318 0 .477-.16.477-.16.159 0 .159.16.159.16 0 .159-.16.318-.477.636h-.159m-1.748-.16c-.636-.317-.795-.794-.795-1.589 0-.476 0-.794.318-1.112a.874.874 0 0 1 .795-.477c.318 0 .476.16.794.477.16.477.318.953.318 1.43v.318h.16v-.159c.158 0 .158-.318.158-.953 0-.477 0-.954-.318-1.43-.318-.477-.636-.795-1.271-.795-.477 0-.954.318-1.113.794-.318.636-.381 1.113-.381 1.907 0 .636.222 1.272.858 1.907.159-.158.318-.158.477-.317m19.865 22.408c.16 0 .16-.064.16-.207 0-.35-.16-.762-.636-1.223-.477-.477-1.272-.779-2.225-.906-.16-.016-.318-.016-.318-.016-.159-.032-.159-.032-.318-.032a8.677 8.677 0 0 1-.636-.08c.477-1.477.636-2.78.636-3.925 0-1.589-.318-2.701-.954-3.655-.635-.954-1.27-1.43-2.066-1.59-.158.16-.158.16-.158.319.794.317 1.589.953 2.066 1.907.476 1.112.635 2.066.635 3.178 0 .89-.159 2.21-.794 3.894-.636.254-1.272.842-1.749 1.764 0 .143 0 .222.16.222 0 0 .158-.143.317-.413.318-.27.477-.54.795-.81.477-.27.794-.414 1.271-.414.795 0 1.59.112 2.066.334.636.207.954.43 1.113.684.159.238.318.46.477.667 0 .207.158.302.158.302m-14.62-23.044c-.16-.159-.16-.477-.16-.795 0-.635 0-.953.318-1.43.318-.318.636-.477.954-.477.477 0 .794.318 1.112.636.16.477.318.795.318 1.271 0 .795-.318 1.272-.953 1.43 0 0 .159.16.317.16.318 0 .477.158.795.317.159-.953.318-1.589.318-2.383 0-.954-.159-1.59-.477-2.066-.477-.477-.953-.636-1.59-.636-.476 0-.953.159-1.43.477-.317.476-.476.794-.476 1.271a4.4 4.4 0 0 0 .477 2.066c.159 0 .317.159.476.159m1.907 2.543c-2.066 1.43-3.655 2.066-4.926 2.066-1.113 0-2.225-.477-3.179-1.272.16.318.318.636.477.795l.954.954c.635.635 1.43.953 2.225.953 1.112 0 2.383-.636 3.973-1.748l1.43-.954c.318-.317.636-.635.636-1.112 0-.159 0-.318-.16-.318-.158-.318-.953-.795-2.542-1.271-1.43-.636-2.543-.954-3.178-.954-.477 0-1.272.318-2.384.954-.954.635-1.59 1.271-1.59 1.907 0 0 .16.159.318.477.954.794 1.907 1.27 2.86 1.27 1.272 0 2.862-.635 4.928-2.224v.318c.158 0 .158.159.158.159m3.656 32.103c.635 1.195 1.748 1.795 3.02 1.795.317 0 .635-.047.953-.143.318-.063.636-.174.794-.302.16-.11.318-.222.477-.35.318-.11.318-.19.477-.27l2.702-2.336c.635-.507 1.271-.95 2.066-1.335.635-.381 1.271-.635 1.589-.778a2.836 2.836 0 0 0 1.112-.572c.16-.239.318-.54.318-.922 0-.461-.318-.81-.635-1.065a3.233 3.233 0 0 0-.954-.54c-.318-.112-.636-.366-1.112-.795a4.286 4.286 0 0 1-.795-1.732l-.159-.922c-.159-.43-.159-.747-.318-.922 0-.047 0-.063-.159-.063s-.476.143-.635.413c-.318.27-.636.572-.954.89-.159.318-.636.604-.953.874-.477.27-.954.413-1.272.413-1.271 0-1.907-.35-2.384-1.033-.318-.508-.477-1.096-.635-1.764-.318-.27-.477-.413-.795-.413-.795 0-1.113.826-1.113 2.495V454.805c0 .143-.158.46-.158.953-.16.493-.16 1.052-.16 1.685l-.317 1.764v.027m-23.044-.841c1.478.216 3.178.679 5.101 1.384 1.923.7 3.1 1.065 3.528 1.065 1.113 0 2.035-.493 2.797-1.445.16-.308.16-.67.16-1.087 0-1.501-.907-3.4-2.718-5.705l-1.081-1.446c-.223-.302-.493-.763-.842-1.383a13.587 13.587 0 0 0-.874-1.43c-.207-.366-.54-.731-.97-1.097a3.264 3.264 0 0 0-1.414-.73c-.668.126-1.129.349-1.351.65-.223.303-.35.636-.382.986-.047.334-.143.556-.302.668-.158.095-.429.174-.794.254-.08 0-.223 0-.43.016h-.428c-.843 0-1.415.095-1.717.254-.397.46-.604.985-.604 1.542 0 .254.064.683.191 1.287.127.588.19 1.065.19 1.398 0 .652-.19 1.304-.587 1.955-.398.684-.604 1.192-.604 1.554.159.617 1.208 1.051 3.13 1.305m5.293-14.446c0-1.097.286-2.304.874-3.735.572-1.43 1.144-2.384 1.7-3.02-.031-.158-.11-.158-.238-.158l-.159-.16c-.46.478-1.017 1.59-1.684 3.18-.668 1.43-1.018 2.749-1.018 3.718 0 .715.175 1.335.493 1.876.35.524 1.192 1.287 2.527 2.256l1.685 1.097c1.795 1.557 2.749 2.638 2.749 3.274 0 .333-.159.667-.636 1.033-.318.381-.747.572-1.112.572-.032 0-.048.032-.048.111 0 .016.16.334.493.954.667.905 2.098 1.35 4.005 1.35 3.496 0 6.198-1.43 8.264-4.29 0-.795 0-1.288-.16-1.494v-.588c0-1.033.16-1.812.478-2.32.317-.51.635-.748 1.112-.748.318 0 .636.112.954.35.159-1.224.159-2.289.159-3.242 0-1.446 0-2.638-.318-3.75a8.377 8.377 0 0 0-.795-2.385l-.953-1.43c-.318-.477-.477-.953-.795-1.43-.159-.636-.318-1.113-.318-1.907-.477-.795-.795-1.59-1.271-2.384-.318-.795-.636-1.59-.954-2.225l-1.43 1.112c-1.59 1.113-2.86 1.59-3.973 1.59-.954 0-1.748-.16-2.225-.795l-.954-.795c0 .477-.159 1.113-.477 1.749l-1 1.907c-.446 1.112-.684 1.748-.732 2.225-.063.317-.111.635-.143.635l-1.192 2.384c-1.287 2.384-1.939 4.593-1.939 6.42 0 .366.032.748.096 1.129-.715-.493-1.065-1.176-1.065-2.066m11.379 15.034c-2.066 0-3.655.28-4.768.835v-.048c-.794.954-1.684 1.446-2.924 1.446-.779 0-2.003-.302-3.655-.906-1.669-.572-3.147-1.01-4.434-1.3a9.517 9.517 0 0 0-.874-.163 33.182 33.182 0 0 1-1.224-.218 9.221 9.221 0 0 1-1.129-.326c-.397-.125-.715-.29-.953-.488-.22-.2-.327-.426-.327-.678 0-.255.054-.526.162-.816.101-.175.213-.35.324-.508a3.08 3.08 0 0 0 .27-.493c.095-.143.159-.286.223-.445.063-.143.127-.286.158-.46.032-.16.064-.319.064-.478 0-.159-.064-.635-.19-1.478-.128-.826-.191-1.35-.191-1.573 0-.7.159-1.255.508-1.653.35-.397.684-.604 1.033-.604h1.828c.143 0 .365-.08.7-.27.11-.254.206-.46.27-.651.079-.191.11-.334.142-.398.032-.095.064-.19.096-.27.063-.111.143-.238.254-.365-.127-.16-.19-.366-.19-.62 0-.175 0-.334.031-.43 0-.571.27-1.382.842-2.447l.557-1.001c.46-.858.81-1.494 1.064-2.13.27-.635.557-1.589.874-2.86.255-1.113.859-2.225 1.812-3.338l1.192-1.43c.826-.954 1.367-1.748 1.669-2.384a5.12 5.12 0 0 0 .46-2.066c0-.318-.079-1.271-.254-2.86a47.163 47.163 0 0 1-.238-4.61c0-1.112.095-1.906.302-2.701.207-.795.572-1.59 1.112-2.225.477-.636 1.113-1.271 2.066-1.59.954-.317 2.066-.476 3.338-.476.477 0 .953 0 1.43.159.477 0 1.113.159 1.907.477.636.318 1.272.635 1.748 1.112.636.477 1.113 1.272 1.59 2.066.318.954.635 1.907.794 3.179.16.794.16 1.589.318 2.701 0 .954.16 1.59.16 2.066.158.477.158 1.113.317 1.908.159.635.318 1.27.636 1.748.317.635.635 1.271 1.112 1.907.477.794 1.113 1.589 1.748 2.543 1.43 1.589 2.543 3.337 3.179 5.085.794 1.59 1.271 3.655 1.271 5.864a10.8 10.8 0 0 1-.477 3.195c.318 0 .477.127.636.35.159.222.318.699.477 1.446l.159 1.176c.159.35.318.683.794.97.318.285.636.524 1.113.714.318.16.795.382 1.112.668.318.318.477.651.477 1.001 0 .54-.159.938-.477 1.224-.317.318-.635.54-1.112.683-.318.16-.954.477-1.907.925-.795.47-1.59 1.041-2.384 1.716l-1.59 1.353a8.806 8.806 0 0 1-1.747 1.335c-.477.286-1.113.429-1.749.429l-1.112-.127c-1.272-.334-2.066-.97-2.543-1.939-2.543-.308-4.609-.46-5.88-.46M1879.522 429.865c-.278.216-5.194 2.986-5.194 9.145 0 7.124 6.255 9.644 6.443 9.706-.03.154-.994 3.452-3.298 6.812-2.055 2.957-4.2 5.91-7.465 5.91-3.264 0-4.105-1.897-7.873-1.897-3.672 0-4.978 1.959-7.964 1.959-2.986 0-5.07-2.736-7.465-6.097-2.774-3.946-5.016-10.076-5.016-15.894 0-9.332 6.068-14.281 12.04-14.281 3.173 0 5.818 2.083 7.81 2.083 1.896 0 4.853-2.208 8.463-2.208 1.368 0 6.284.125 9.52 4.762Zm-11.233-8.713c1.493-1.771 2.55-4.23 2.55-6.687 0-.34-.03-.687-.092-.965-2.429.091-5.319 1.618-7.061 3.639-1.368 1.555-2.645 4.013-2.645 6.504 0 .375.062.75.09.87.154.028.404.062.654.062 2.18 0 4.92-1.46 6.504-3.423ZM2039.158 537.5v-33.3h-3.78v33.3h3.78Zm16.245.405c7.2 0 10.395-5.31 10.395-11.88 0-6.615-3.285-11.925-10.395-11.925-7.11 0-10.395 5.31-10.395 11.925 0 6.615 3.195 11.88 10.395 11.88Zm0-3.375c-4.635 0-6.57-3.555-6.57-8.505 0-4.905 1.89-8.55 6.57-8.55 4.68 0 6.57 3.6 6.57 8.55 0 4.95-1.89 8.505-6.57 8.505Zm25.335 3.375c5.985 0 9.045-3.285 9.495-8.145h-3.78c-.315 3.06-2.34 4.815-5.76 4.815-4.725 0-6.57-3.735-6.57-8.55 0-4.725 1.845-8.55 6.57-8.55 3.33 0 5.445 1.845 5.67 4.905h3.78c-.315-4.635-3.285-8.28-9.45-8.28-6.84 0-10.395 4.77-10.395 11.925 0 7.245 3.555 11.88 10.44 11.88Zm22.005 0c3.24 0 5.805-1.305 7.2-3.645h.18l.27 3.24h3.195v-15.48c0-4.365-3.105-7.92-9-7.92-5.04 0-8.73 2.925-8.73 7.335h3.645c.045-2.205 1.71-4.095 5.085-4.095 3.735 0 5.31 2.205 5.31 4.77v1.485h-5.67c-6.75 0-9.495 3.33-9.495 7.2 0 4.005 3.015 7.11 8.01 7.11Zm.675-3.15c-3.33 0-4.86-1.71-4.86-4.005 0-2.7 1.935-4.14 5.67-4.14h5.67v1.98c0 3.33-2.565 6.165-6.48 6.165Zm21.6 2.745v-33.3h-3.78v33.3h3.78Zm11.43 0v-12.6c0-4.635 2.43-7.425 6.165-7.425 3.645 0 5.4 2.07 5.4 5.67V537.5h3.78v-14.94c0-5.265-3.06-8.46-8.145-8.46-3.555 0-5.805 1.665-7.02 4.005h-.18V504.2h-3.78v33.3h3.78Zm31.59.405c7.2 0 10.395-5.31 10.395-11.88 0-6.615-3.285-11.925-10.395-11.925-7.11 0-10.395 5.31-10.395 11.925 0 6.615 3.195 11.88 10.395 11.88Zm0-3.375c-4.635 0-6.57-3.555-6.57-8.505 0-4.905 1.89-8.55 6.57-8.55 4.68 0 6.57 3.6 6.57 8.55 0 4.95-1.89 8.505-6.57 8.505Zm24.3 3.375c4.95 0 9.09-2.43 9.09-6.66 0-3.96-2.205-5.67-6.525-6.66l-3.6-.675c-2.52-.405-4.005-1.44-4.005-3.24 0-2.25 1.935-3.375 4.725-3.375 2.88 0 5.04 1.305 5.175 4.23h3.69c0-4.59-3.69-7.425-8.865-7.425-5.085 0-8.37 2.745-8.37 6.57 0 3.375 2.07 5.67 5.85 6.435l4.59.855c2.475.54 3.51 1.755 3.51 3.285 0 2.205-2.025 3.285-5.265 3.285-3.285 0-5.625-1.575-5.625-4.635h-3.78c.135 5.04 3.96 8.01 9.405 8.01Zm26.46-.405v-3.33h-2.7c-2.07 0-3.015-.945-3.015-3.15V517.7h5.625v-3.195h-5.625v-6.165h-3.69v6.165h-3.915v3.195h3.825v13.635c0 3.825 1.53 6.165 6.075 6.165h3.42Zm9.81-16.02v-4.95h-4.86v4.95h4.86Zm0 16.02v-4.95h-4.86v4.95h4.86Zm25.605 0v-3.51h-14.445v-.18l8.145-9.45c3.915-4.545 5.805-6.885 5.805-10.395 0-4.815-3.555-8.505-9.54-8.505-6.165 0-9.72 3.87-9.72 9.36h3.825c0-3.825 2.205-5.94 5.895-5.94 3.78 0 5.625 2.16 5.625 5.22 0 2.655-1.26 4.095-4.5 7.875l-10.755 12.555v2.97h19.665Zm25.605 0v-3.51h-14.445v-.18l8.145-9.45c3.915-4.545 5.805-6.885 5.805-10.395 0-4.815-3.555-8.505-9.54-8.505-6.165 0-9.72 3.87-9.72 9.36h3.825c0-3.825 2.205-5.94 5.895-5.94 3.78 0 5.625 2.16 5.625 5.22 0 2.655-1.26 4.095-4.5 7.875l-10.755 12.555v2.97h19.665Zm25.605 0v-3.51h-14.445v-.18l8.145-9.45c3.915-4.545 5.805-6.885 5.805-10.395 0-4.815-3.555-8.505-9.54-8.505-6.165 0-9.72 3.87-9.72 9.36h3.825c0-3.825 2.205-5.94 5.895-5.94 3.78 0 5.625 2.16 5.625 5.22 0 2.655-1.26 4.095-4.5 7.875l-10.755 12.555v2.97h19.665Zm16.47.405c6.57-.045 10.62-3.42 10.62-9.09 0-3.645-1.755-6.57-5.355-7.92v-.18c2.88-1.305 4.41-3.78 4.41-6.93 0-5.085-3.69-8.28-9.675-8.325-5.985.045-9.675 3.24-9.675 8.325 0 3.15 1.53 5.625 4.41 6.93v.18c-3.6 1.35-5.355 4.275-5.355 7.92 0 5.67 4.05 9.045 10.62 9.09Zm0-18.63c-3.87-.045-5.805-2.385-5.805-5.31 0-3.015 1.89-5.13 5.805-5.175 3.915.045 5.805 2.16 5.805 5.175 0 2.925-1.935 5.265-5.805 5.31Zm0 15.3c-4.68-.045-6.705-2.52-6.705-6.03 0-3.285 1.89-5.895 6.705-5.94 4.815.045 6.705 2.655 6.705 5.94 0 3.51-2.025 5.985-6.705 6.03ZM1956.922 504.11l19.672-2.71v19.007h-19.672v-16.296Zm0 34.78 19.672 2.71v-18.771h-19.672v16.06Zm21.836 3 26.164 3.61v-22.671h-26.164v19.06Zm0-40.78v19.297h26.164V497.5l-26.164 3.61Z" fill="#000" fill-rule="nonzero"/><rect fill="#0091FF" x="781.319" y="596.5" width="320" height="200" rx="16"/><path d="m824.469 681.5 2.88-8.82h16.44l2.88 8.82h9.06v-.6l-14.76-41.4h-10.44l-14.7 41.4v.6h8.64Zm16.92-16.08h-11.64l5.7-17.52h.24l5.7 17.52Zm26.94 16.08v-44.4h-8.04v44.4h8.04Zm14.82 0v-44.4h-8.04v44.4h8.04Zm20.1.54c8.04 0 13.14-4.62 13.98-10.26h-7.86c-.6 1.92-2.52 3.6-6.12 3.6-4.62 0-6.78-3-6.84-7.26h21.24V665c0-8.52-5.22-15.24-14.52-15.24-10.02 0-14.94 7.32-14.94 16.2 0 9 5.4 16.08 15.06 16.08Zm6.18-19.26h-12.96c.18-3.54 2.16-6.3 6.66-6.3 4.2 0 6.18 2.76 6.3 6.3Zm25.74 32.46 16.14-44.34v-.6h-8.64l-7.44 22.8h-.24l-7.2-22.8h-8.28v.6l10.62 30.48 1.14.06-4.74 13.2v.6h8.64Zm39.06-13.2c10.5 0 17.16-6.78 18.06-15.42h-8.34c-.78 4.44-3.72 7.98-9.72 7.98-7.74 0-11.4-5.58-11.4-14.04 0-8.46 3.66-14.1 11.4-14.1 6.24 0 9.24 3.84 9.66 8.34h8.4c-.66-8.88-7.5-15.84-18.06-15.84-13.08 0-19.8 9.24-19.8 21.6 0 12.18 6.72 21.48 19.8 21.48Zm29.22-.54 2.88-8.82h16.44l2.88 8.82h9.06v-.6l-14.76-41.4h-10.44l-14.7 41.4v.6h8.64Zm16.92-16.08h-11.64l5.7-17.52h.24l5.7 17.52Zm33.78 16.08v-34.56h12.36v-7.44h-33v7.44h12.36v34.56h8.28Zm-157.17 72.54c10.5 0 17.16-6.78 18.06-15.42h-8.34c-.78 4.44-3.72 7.98-9.72 7.98-7.74 0-11.4-5.58-11.4-14.04 0-8.46 3.66-14.1 11.4-14.1 6.24 0 9.24 3.84 9.66 8.34h8.4c-.66-8.88-7.5-15.84-18.06-15.84-13.08 0-19.8 9.24-19.8 21.6 0 12.18 6.72 21.48 19.8 21.48Zm37.5 0c10.02 0 15.12-6.9 15.12-16.08 0-9.24-5.22-16.2-15.12-16.2-9.96 0-15.18 6.96-15.18 16.2 0 9.24 5.1 16.08 15.18 16.08Zm0-7.08c-4.5 0-6.96-3.06-6.96-9 0-5.94 2.4-9.12 6.96-9.12 4.5 0 6.96 3.12 6.96 9.12 0 5.94-2.46 9-6.96 9Zm28.32 6.54v-15.3c0-5.64 2.76-8.94 7.56-8.94h2.82v-7.44h-2.28c-3.96 0-6.72 2.28-8.1 5.22h-.24l-.6-4.74h-6.78v31.2h7.62Zm28.68.54c8.04 0 13.14-4.62 13.98-10.26h-7.86c-.6 1.92-2.52 3.6-6.12 3.6-4.62 0-6.78-3-6.84-7.26h21.24V737c0-8.52-5.22-15.24-14.52-15.24-10.02 0-14.94 7.32-14.94 16.2 0 9 5.4 16.08 15.06 16.08Zm6.18-19.26h-12.96c.18-3.54 2.16-6.3 6.66-6.3 4.2 0 6.18 2.76 6.3 6.3Z" fill="#FFF" fill-rule="nonzero"/><rect fill="#0091FF" x="1335.319" y="379.5" width="320" height="200" rx="16"/><path d="M1385.249 464.5v-14.4h9.78c8.46 0 13.86-5.88 13.86-13.92 0-7.8-5.28-13.68-13.86-13.68h-18v42h8.22Zm8.28-21.78h-8.28v-12.9h8.28c4.38 0 6.96 2.28 6.96 6.36 0 4.38-2.4 6.54-6.96 6.54Zm29.4 21.78v-44.4h-8.04v44.4h8.04Zm15.96.54c4.02 0 6.96-1.5 8.7-3.78h.24l.6 3.24h7.14v-20.64c0-6.36-4.86-11.1-13.26-11.1-8.52 0-12.96 4.74-12.96 10.62h7.56c0-2.22 1.86-4.02 5.22-4.02 3.84 0 5.4 2.04 5.4 4.56v1.74h-6.96c-8.7 0-12.6 4.02-12.6 9.66 0 5.52 3.96 9.72 10.92 9.72Zm1.92-6.36c-3.24 0-4.86-1.56-4.86-3.72 0-2.22 1.68-3.72 5.22-3.72h6.36v1.68c0 3.12-2.52 5.76-6.72 5.76Zm40.14 5.82v-7.02h-3.6c-2.76 0-4.02-1.26-4.02-4.2v-13.14h7.5v-6.84h-7.5v-8.22h-7.74v8.22h-5.4v6.84h5.1v14.88c0 5.52 2.88 9.48 9.78 9.48h5.88Zm17.58 0v-24.42h7.44v-6.78h-7.44v-2.64c0-3 1.74-4.26 4.74-4.26h3v-6.9h-3.84c-6.78 0-11.94 4.14-11.94 11.16v2.64h-5.46v6.78h5.46v24.42h8.04Zm25.5.54c10.02 0 15.12-6.9 15.12-16.08 0-9.24-5.22-16.2-15.12-16.2-9.96 0-15.18 6.96-15.18 16.2 0 9.24 5.1 16.08 15.18 16.08Zm0-7.08c-4.5 0-6.96-3.06-6.96-9 0-5.94 2.4-9.12 6.96-9.12 4.5 0 6.96 3.12 6.96 9.12 0 5.94-2.46 9-6.96 9Zm28.32 6.54v-15.3c0-5.64 2.76-8.94 7.56-8.94h2.82v-7.44h-2.28c-3.96 0-6.72 2.28-8.1 5.22h-.24l-.6-4.74h-6.78v31.2h7.62Zm23.76 0v-17.28c0-4.44 2.58-7.14 6.3-7.14 3.96 0 5.46 2.34 5.46 6.24v18.18h7.98v-17.28c0-4.38 2.16-7.14 5.94-7.14 3.9 0 5.4 2.34 5.4 6.24v18.18h8.04v-20.46c0-6.9-4.38-11.28-11.28-11.28-4.86 0-7.92 2.22-9.54 4.62h-.18c-1.8-2.94-4.98-4.62-9.36-4.62-4.26 0-7.02 1.74-8.76 4.08h-.24l-.6-3.54h-7.2v31.2h8.04Zm-125.52 72v-7.38h-19.38V494.5h-8.22v42h27.6Zm13.74.54c4.02 0 6.96-1.5 8.7-3.78h.24l.6 3.24h7.14v-20.64c0-6.36-4.86-11.1-13.26-11.1-8.52 0-12.96 4.74-12.96 10.62h7.56c0-2.22 1.86-4.02 5.22-4.02 3.84 0 5.4 2.04 5.4 4.56v1.74h-6.96c-8.7 0-12.6 4.02-12.6 9.66 0 5.52 3.96 9.72 10.92 9.72Zm1.92-6.36c-3.24 0-4.86-1.56-4.86-3.72 0-2.22 1.68-3.72 5.22-3.72h6.36v1.68c0 3.12-2.52 5.76-6.72 5.76Zm33.42 19.56 16.14-44.34v-.6h-8.64l-7.44 22.8h-.24l-7.2-22.8h-8.28v.6l10.62 30.48 1.14.06-4.74 13.2v.6h8.64Zm33.06-13.2c8.04 0 13.14-4.62 13.98-10.26h-7.86c-.6 1.92-2.52 3.6-6.12 3.6-4.62 0-6.78-3-6.84-7.26h21.24V520c0-8.52-5.22-15.24-14.52-15.24-10.02 0-14.94 7.32-14.94 16.2 0 9 5.4 16.08 15.06 16.08Zm6.18-19.26h-12.96c.18-3.54 2.16-6.3 6.66-6.3 4.2 0 6.18 2.76 6.3 6.3Zm21.42 18.72v-15.3c0-5.64 2.76-8.94 7.56-8.94h2.82v-7.44h-2.28c-3.96 0-6.72 2.28-8.1 5.22h-.24l-.6-4.74h-6.78v31.2h7.62Z" fill="#FFF" fill-rule="nonzero"/><rect fill="#0091FF" x="2533.625" y="379.5" width="320" height="200" rx="16"/><path d="m2576.775 464.5 2.88-8.82h16.44l2.88 8.82h9.06v-.6l-14.76-41.4h-10.44l-14.7 41.4v.6h8.64Zm16.92-16.08h-11.64l5.7-17.52h.24l5.7 17.52Zm26.94 16.08v-44.4h-8.04v44.4h8.04Zm14.82 0v-44.4h-8.04v44.4h8.04Zm20.1.54c8.04 0 13.14-4.62 13.98-10.26h-7.86c-.6 1.92-2.52 3.6-6.12 3.6-4.62 0-6.78-3-6.84-7.26h21.24V448c0-8.52-5.22-15.24-14.52-15.24-10.02 0-14.94 7.32-14.94 16.2 0 9 5.4 16.08 15.06 16.08Zm6.18-19.26h-12.96c.18-3.54 2.16-6.3 6.66-6.3 4.2 0 6.18 2.76 6.3 6.3Zm25.74 32.46 16.14-44.34v-.6h-8.64l-7.44 22.8h-.24l-7.2-22.8h-8.28v.6l10.62 30.48 1.14.06-4.74 13.2v.6h8.64Zm39.06-13.2c10.5 0 17.16-6.78 18.06-15.42h-8.34c-.78 4.44-3.72 7.98-9.72 7.98-7.74 0-11.4-5.58-11.4-14.04 0-8.46 3.66-14.1 11.4-14.1 6.24 0 9.24 3.84 9.66 8.34h8.4c-.66-8.88-7.5-15.84-18.06-15.84-13.08 0-19.8 9.24-19.8 21.6 0 12.18 6.72 21.48 19.8 21.48Zm29.22-.54 2.88-8.82h16.44l2.88 8.82h9.06v-.6l-14.76-41.4h-10.44l-14.7 41.4v.6h8.64Zm16.92-16.08h-11.64l5.7-17.52h.24l5.7 17.52Zm33.78 16.08v-34.56h12.36v-7.44h-33v7.44h12.36v34.56h8.28Zm-138.48 72v-7.38h-19.38V494.5h-8.22v42h27.6Zm12.9-35.64v-8.4h-8.64v8.4h8.64Zm-.3 35.64v-31.2h-8.04v31.2h8.04Zm14.82 0v-17.28c0-4.44 2.58-7.14 6.42-7.14 4.02 0 5.76 2.34 5.76 6.24v18.18h8.04v-20.46c0-6.9-4.44-11.28-11.34-11.28-4.26 0-7.14 1.74-8.88 4.08h-.24l-.6-3.54h-7.2v31.2h8.04Zm34.62 0v-14.1l11.16 14.1h9.66v-.6l-13.2-16.14 12.6-13.86v-.6h-9.36l-10.86 12.12V492.1h-7.62v44.4h7.62Z" fill="#FFF" fill-rule="nonzero"/><path d="M232.438 1039.255c8.917 0 15.976-3.59 19.815-10.03h.495l.743 8.916h8.793v-42.6c0-12.013-8.545-21.796-24.768-21.796-13.87 0-24.025 8.05-24.025 20.185h10.031c.124-6.068 4.706-11.269 13.994-11.269 10.278 0 14.613 6.068 14.613 13.127v4.087h-15.604c-18.576 0-26.13 9.164-26.13 19.814 0 11.022 8.297 19.566 22.043 19.566Zm1.858-8.668c-9.164 0-13.375-4.706-13.375-11.022 0-7.43 5.325-11.393 15.604-11.393h15.604v5.449c0 9.164-7.06 16.966-17.833 16.966Zm56.003 7.554V946.5h-10.403v91.64H290.3Zm28.015 0V946.5H307.91v91.64h10.403Zm41.39 1.114c13.498 0 24.644-7.801 26.377-19.442H375.68c-1.734 6.687-7.678 10.154-15.975 10.154-11.765 0-17.833-8.297-17.833-20.31h45.077v-5.077c0-17.585-9.535-30.835-27.368-30.835-19.567 0-28.607 14.489-28.607 32.817 0 18.576 10.03 32.693 28.73 32.693Zm16.47-38.266h-34.18c.372-9.907 5.697-17.956 17.586-17.956 11.27 0 16.594 7.925 16.594 17.956Zm40.028 65.511 35.046-90.402v-1.239H440.35l-18.576 49.66h-.495l-19.195-49.66H390.94v1.239l25.387 61.176.123.372-10.774 27.616v1.238h10.527Zm71.469-27.245c18.823 0 28.606-11.64 29.473-26.625H497.95c-.619 5.697-4.582 9.907-10.774 9.907-8.05 0-12.631-5.077-12.631-16.842 0-11.64 4.582-16.718 12.631-16.718 6.192 0 10.155 4.21 10.774 9.907h19.195c-.867-14.985-10.774-26.625-29.969-26.625-20.68 0-32.074 13.87-32.074 33.436 0 19.69 11.888 33.56 32.57 33.56Zm58.328 0c8.05 0 13.746-2.848 17.337-6.935h.496l1.362 5.82h17.09v-42.6c0-13.498-10.65-23.281-28.36-23.281-19.07 0-27.863 10.402-27.863 22.538h17.832c0-3.963 3.468-7.182 9.412-7.182 7.06 0 9.907 3.467 9.907 7.925v3.468h-13.87c-17.832 0-26.006 7.925-26.006 19.938 0 11.517 8.05 20.31 22.663 20.31Zm4.83-14.86c-5.697 0-8.67-2.725-8.67-6.44 0-3.467 2.725-6.192 8.793-6.192h12.26v2.725c0 5.325-4.582 9.907-12.384 9.907Zm82.49 13.746v-16.595h-7.43c-5.697 0-8.298-2.6-8.298-8.668v-23.282h15.48v-16.223h-15.48v-16.966h-18.204v16.966h-11.393v16.223h10.526v27.864c0 11.764 6.688 20.68 21.672 20.68h13.127Z" fill="#0091FF" fill-rule="nonzero"/><rect fill="#BCBCBC" x="548.319" y="560.5" width="96" height="72" rx="12"/><path d="M581.499 617.5v-34.56h12.36v-7.44h-33v7.44h12.36v34.56h8.28Zm32.52.54c11.76 0 16.98-5.16 16.98-12.66 0-7.68-5.4-11.1-13.2-12.72l-5.7-1.2c-4.08-.9-5.4-2.46-5.4-4.62 0-2.58 2.22-4.5 7.26-4.5 5.4 0 7.74 2.7 7.98 5.94h8.34c-.06-7.86-6.78-13.32-16.2-13.32-9.72 0-15.84 4.8-15.84 11.88 0 7.62 5.16 10.68 12.42 12.24l6.12 1.32c3.96.84 5.76 2.34 5.76 5.16 0 3.18-2.52 5.16-8.52 5.16-5.16 0-8.46-2.34-8.82-7.08h-8.34c.42 8.7 6.24 14.4 17.16 14.4Z" fill="#FFF" fill-rule="nonzero"/><rect fill="#BCBCBC" x="1053.319" y="560.5" width="96" height="72" rx="12"/><path d="M1086.499 617.5v-34.56h12.36v-7.44h-33v7.44h12.36v34.56h8.28Zm32.52.54c11.76 0 16.98-5.16 16.98-12.66 0-7.68-5.4-11.1-13.2-12.72l-5.7-1.2c-4.08-.9-5.4-2.46-5.4-4.62 0-2.58 2.22-4.5 7.26-4.5 5.4 0 7.74 2.7 7.98 5.94h8.34c-.06-7.86-6.78-13.32-16.2-13.32-9.72 0-15.84 4.8-15.84 11.88 0 7.62 5.16 10.68 12.42 12.24l6.12 1.32c3.96.84 5.76 2.34 5.76 5.16 0 3.18-2.52 5.16-8.52 5.16-5.16 0-8.46-2.34-8.82-7.08h-8.34c.42 8.7 6.24 14.4 17.16 14.4Z" fill="#FFF" fill-rule="nonzero"/><rect fill="#BCBCBC" x="1555.319" y="343.5" width="200" height="72" rx="12"/><path d="M1588.299 400.5v-34.56h12.36v-7.44h-33v7.44h12.36v34.56h8.28Zm32.52.54c11.76 0 16.98-5.16 16.98-12.66 0-7.68-5.4-11.1-13.2-12.72l-5.7-1.2c-4.08-.9-5.4-2.46-5.4-4.62 0-2.58 2.22-4.5 7.26-4.5 5.4 0 7.74 2.7 7.98 5.94h8.34c-.06-7.86-6.78-13.32-16.2-13.32-9.72 0-15.84 4.8-15.84 11.88 0 7.62 5.16 10.68 12.42 12.24l6.12 1.32c3.96.84 5.76 2.34 5.76 5.16 0 3.18-2.52 5.16-8.52 5.16-5.16 0-8.46-2.34-8.82-7.08h-8.34c.42 8.7 6.24 14.4 17.16 14.4Zm27.48 7.44 16.92-51.6v-.6h-7.62l-16.86 51.6v.6h7.56Zm30.78-7.98v-15.36h7.08l9.66 15.36h9.48v-.6l-10.44-15.72c5.16-1.86 8.46-6.42 8.46-12.54 0-7.14-5.16-13.14-14.04-13.14h-18.42v42h8.22Zm9.78-22.68h-9.78v-11.94h9.78c4.14 0 6 2.64 6 5.82 0 3.36-1.8 6.12-6 6.12Zm36.36 23.22c11.76 0 16.98-5.16 16.98-12.66 0-7.68-5.4-11.1-13.2-12.72l-5.7-1.2c-4.08-.9-5.4-2.46-5.4-4.62 0-2.58 2.22-4.5 7.26-4.5 5.4 0 7.74 2.7 7.98 5.94h8.34c-.06-7.86-6.78-13.32-16.2-13.32-9.72 0-15.84 4.8-15.84 11.88 0 7.62 5.16 10.68 12.42 12.24l6.12 1.32c3.96.84 5.76 2.34 5.76 5.16 0 3.18-2.52 5.16-8.52 5.16-5.16 0-8.46-2.34-8.82-7.08h-8.34c.42 8.7 6.24 14.4 17.16 14.4Z" fill="#FFF" fill-rule="nonzero"/><rect fill="#BCBCBC" x="2805.625" y="343.5" width="96" height="72" rx="12"/><path d="M2826.775 400.5v-14.4h9.78c8.46 0 13.86-5.88 13.86-13.92 0-7.8-5.28-13.68-13.86-13.68h-18v42h8.22Zm8.28-21.78h-8.28v-12.9h8.28c4.38 0 6.96 2.28 6.96 6.36 0 4.38-2.4 6.54-6.96 6.54Zm42.06 21.78v-16.98l15.36-24.42v-.6h-9.48l-9.84 16.86h-.24l-10.08-16.86h-9.48v.6l15.48 24.48v16.92h8.28Z" fill="#FFF" fill-rule="nonzero"/><rect fill="#0091FF" x="1335.319" y="779.5" width="320" height="200" rx="16"/><path d="M1385.249 864.5v-14.4h9.78c8.46 0 13.86-5.88 13.86-13.92 0-7.8-5.28-13.68-13.86-13.68h-18v42h8.22Zm8.28-21.78h-8.28v-12.9h8.28c4.38 0 6.96 2.28 6.96 6.36 0 4.38-2.4 6.54-6.96 6.54Zm29.4 21.78v-44.4h-8.04v44.4h8.04Zm15.96.54c4.02 0 6.96-1.5 8.7-3.78h.24l.6 3.24h7.14v-20.64c0-6.36-4.86-11.1-13.26-11.1-8.52 0-12.96 4.74-12.96 10.62h7.56c0-2.22 1.86-4.02 5.22-4.02 3.84 0 5.4 2.04 5.4 4.56v1.74h-6.96c-8.7 0-12.6 4.02-12.6 9.66 0 5.52 3.96 9.72 10.92 9.72Zm1.92-6.36c-3.24 0-4.86-1.56-4.86-3.72 0-2.22 1.68-3.72 5.22-3.72h6.36v1.68c0 3.12-2.52 5.76-6.72 5.76Zm40.14 5.82v-7.02h-3.6c-2.76 0-4.02-1.26-4.02-4.2v-13.14h7.5v-6.84h-7.5v-8.22h-7.74v8.22h-5.4v6.84h5.1v14.88c0 5.52 2.88 9.48 9.78 9.48h5.88Zm17.58 0v-24.42h7.44v-6.78h-7.44v-2.64c0-3 1.74-4.26 4.74-4.26h3v-6.9h-3.84c-6.78 0-11.94 4.14-11.94 11.16v2.64h-5.46v6.78h5.46v24.42h8.04Zm25.5.54c10.02 0 15.12-6.9 15.12-16.08 0-9.24-5.22-16.2-15.12-16.2-9.96 0-15.18 6.96-15.18 16.2 0 9.24 5.1 16.08 15.18 16.08Zm0-7.08c-4.5 0-6.96-3.06-6.96-9 0-5.94 2.4-9.12 6.96-9.12 4.5 0 6.96 3.12 6.96 9.12 0 5.94-2.46 9-6.96 9Zm28.32 6.54v-15.3c0-5.64 2.76-8.94 7.56-8.94h2.82v-7.44h-2.28c-3.96 0-6.72 2.28-8.1 5.22h-.24l-.6-4.74h-6.78v31.2h7.62Zm23.76 0v-17.28c0-4.44 2.58-7.14 6.3-7.14 3.96 0 5.46 2.34 5.46 6.24v18.18h7.98v-17.28c0-4.38 2.16-7.14 5.94-7.14 3.9 0 5.4 2.34 5.4 6.24v18.18h8.04v-20.46c0-6.9-4.38-11.28-11.28-11.28-4.86 0-7.92 2.22-9.54 4.62h-.18c-1.8-2.94-4.98-4.62-9.36-4.62-4.26 0-7.02 1.74-8.76 4.08h-.24l-.6-3.54h-7.2v31.2h8.04Zm-125.52 72v-7.38h-19.38V894.5h-8.22v42h27.6Zm13.74.54c4.02 0 6.96-1.5 8.7-3.78h.24l.6 3.24h7.14v-20.64c0-6.36-4.86-11.1-13.26-11.1-8.52 0-12.96 4.74-12.96 10.62h7.56c0-2.22 1.86-4.02 5.22-4.02 3.84 0 5.4 2.04 5.4 4.56v1.74h-6.96c-8.7 0-12.6 4.02-12.6 9.66 0 5.52 3.96 9.72 10.92 9.72Zm1.92-6.36c-3.24 0-4.86-1.56-4.86-3.72 0-2.22 1.68-3.72 5.22-3.72h6.36v1.68c0 3.12-2.52 5.76-6.72 5.76Zm33.42 19.56 16.14-44.34v-.6h-8.64l-7.44 22.8h-.24l-7.2-22.8h-8.28v.6l10.62 30.48 1.14.06-4.74 13.2v.6h8.64Zm33.06-13.2c8.04 0 13.14-4.62 13.98-10.26h-7.86c-.6 1.92-2.52 3.6-6.12 3.6-4.62 0-6.78-3-6.84-7.26h21.24V920c0-8.52-5.22-15.24-14.52-15.24-10.02 0-14.94 7.32-14.94 16.2 0 9 5.4 16.08 15.06 16.08Zm6.18-19.26h-12.96c.18-3.54 2.16-6.3 6.66-6.3 4.2 0 6.18 2.76 6.3 6.3Zm21.42 18.72v-15.3c0-5.64 2.76-8.94 7.56-8.94h2.82v-7.44h-2.28c-3.96 0-6.72 2.28-8.1 5.22h-.24l-.6-4.74h-6.78v31.2h7.62Z" fill="#FFF" fill-rule="nonzero"/><rect fill="#BCBCBC" x="1607.319" y="743.5" width="96" height="72" rx="12"/><path d="M1640.499 800.5v-34.56h12.36v-7.44h-33v7.44h12.36v34.56h8.28Zm32.52.54c11.76 0 16.98-5.16 16.98-12.66 0-7.68-5.4-11.1-13.2-12.72l-5.7-1.2c-4.08-.9-5.4-2.46-5.4-4.62 0-2.58 2.22-4.5 7.26-4.5 5.4 0 7.74 2.7 7.98 5.94h8.34c-.06-7.86-6.78-13.32-16.2-13.32-9.72 0-15.84 4.8-15.84 11.88 0 7.62 5.16 10.68 12.42 12.24l6.12 1.32c3.96.84 5.76 2.34 5.76 5.16 0 3.18-2.52 5.16-8.52 5.16-5.16 0-8.46-2.34-8.82-7.08h-8.34c.42 8.7 6.24 14.4 17.16 14.4Z" fill="#FFF" fill-rule="nonzero"/><path d="m749.893 680.742.152.08 24 13.5c1.644.924 1.697 3.245.159 4.26l-.16.097-24 13.5a2.5 2.5 0 0 1-2.597-4.269l.146-.089L763.275 699H614.362l15.683 8.821a2.5 2.5 0 0 1 1.032 3.253l-.08.152a2.5 2.5 0 0 1-3.252 1.032l-.152-.08-24-13.5c-1.644-.924-1.697-3.245-.159-4.26l.16-.097 24-13.5a2.5 2.5 0 0 1 2.597 4.269l-.146.089L614.36 694h148.915l-15.683-8.821a2.5 2.5 0 0 1-1.032-3.253l.08-.152a2.5 2.5 0 0 1 3.252-1.032ZM1896.972 863.742l.152.08 24 13.5c1.644.924 1.697 3.245.159 4.26l-.16.097-24 13.5a2.5 2.5 0 0 1-2.597-4.269l.146-.089 15.682-8.821h-236.992l15.683 8.821a2.5 2.5 0 0 1 1.032 3.253l-.08.152a2.5 2.5 0 0 1-3.252 1.032l-.152-.08-24-13.5c-1.644-.924-1.697-3.245-.159-4.26l.16-.097 24-13.5a2.5 2.5 0 0 1 2.597 4.269l-.146.089L1673.36 877h236.994l-15.683-8.821a2.5 2.5 0 0 1-1.032-3.253l.08-.152a2.5 2.5 0 0 1 3.252-1.032ZM1119.503 648.951a2.5 2.5 0 0 1 1.65 2.993l-.046.158-5.564 17.111 8.797-8.098a2.5 2.5 0 0 1 3.514 3.553l-.127.126-8.797 8.097 17.512-4.13a2.5 2.5 0 0 1 2.964 1.7l.043.158a2.5 2.5 0 0 1-1.7 2.965l-.159.043-26.8 6.322c-1.845.435-3.463-1.254-2.997-3.052l.045-.154 8.514-26.187a2.5 2.5 0 0 1 3.15-1.605Zm37.799-14.781a2.5 2.5 0 0 1-.02 3.407l-.126.126-14.715 13.545a2.5 2.5 0 0 1-3.513-3.553l.127-.126 14.714-13.545a2.5 2.5 0 0 1 3.533.146Zm29.429-27.091a2.5 2.5 0 0 1-.02 3.407l-.126.125-14.715 13.546a2.5 2.5 0 0 1-3.513-3.553l.127-.126 14.714-13.545a2.5 2.5 0 0 1 3.533.146Zm29.429-27.091a2.5 2.5 0 0 1-.02 3.407l-.126.125-14.715 13.546a2.5 2.5 0 0 1-3.513-3.553l.127-.126 14.714-13.546a2.5 2.5 0 0 1 3.533.147Zm29.429-27.092a2.5 2.5 0 0 1-.02 3.407l-.126.126-14.715 13.546a2.5 2.5 0 0 1-3.513-3.554l.127-.125 14.714-13.546a2.5 2.5 0 0 1 3.533.146Zm29.429-27.09a2.5 2.5 0 0 1-.02 3.406l-.126.126-14.715 13.545a2.5 2.5 0 0 1-3.513-3.553l.127-.125 14.714-13.546a2.5 2.5 0 0 1 3.533.146Zm29.429-27.092a2.5 2.5 0 0 1-.02 3.407l-.126.126-14.715 13.545a2.5 2.5 0 0 1-3.513-3.553l.127-.125 14.714-13.546a2.5 2.5 0 0 1 3.533.146Zm24.398-19.611-.045.154-8.514 26.187a2.5 2.5 0 0 1-4.8-1.388l.045-.158 5.563-17.112-2.079 1.915a2.5 2.5 0 0 1-3.513-3.553l.127-.126 2.078-1.914-17.511 4.132a2.5 2.5 0 0 1-2.964-1.7l-.043-.16a2.5 2.5 0 0 1 1.7-2.964l.159-.043 26.8-6.322c1.845-.435 3.463 1.254 2.997 3.052ZM1318.563 853.775l.069.157 10.177 25.587c.7 1.761-.734 3.608-2.58 3.411l-.16-.022-27.151-4.59a2.5 2.5 0 0 1 .67-4.952l.163.022 22.768 3.848-8.533-21.456a2.5 2.5 0 0 1 1.242-3.178l.157-.069a2.5 2.5 0 0 1 3.178 1.242Zm-19.175 1.556.143.107 10.006 8.09 5.547 4.483a2.5 2.5 0 0 1-3 3.996l-.143-.107-5.547-4.485-10.006-8.089a2.5 2.5 0 0 1 3-3.995Zm-31.107-25.147.143.107 15.554 12.573a2.5 2.5 0 0 1-3.001 3.996l-.143-.107-15.553-12.574a2.5 2.5 0 0 1 3-3.995Zm-31.106-25.147.143.107 15.553 12.573a2.5 2.5 0 0 1-3 3.996l-.143-.107-15.554-12.574a2.5 2.5 0 0 1 3-3.995Zm-31.107-25.147.143.107 15.553 12.573a2.5 2.5 0 0 1-3 3.996l-.143-.107-15.554-12.574a2.5 2.5 0 0 1 3.001-3.995Zm-31.107-25.148.143.108 15.553 12.573a2.5 2.5 0 0 1-3 3.996l-.143-.107-15.553-12.574a2.5 2.5 0 0 1 3-3.996Zm-31.106-25.147.142.108 15.554 12.573a2.5 2.5 0 0 1-3 3.996l-.144-.107-15.553-12.574a2.5 2.5 0 0 1 3-3.996Zm-33.445-26.525.16.022 27.15 4.59a2.5 2.5 0 0 1-.67 4.952l-.163-.022-17.74-2.999 9.297 7.516a2.5 2.5 0 0 1-3 3.996l-.143-.107-9.299-7.517 6.65 16.719a2.5 2.5 0 0 1-1.242 3.178l-.157.069a2.5 2.5 0 0 1-3.178-1.242l-.069-.157-10.177-25.587c-.7-1.761.734-3.608 2.58-3.411ZM1407.384 606.11l19.671-2.71v19.007h-19.671v-16.296Zm0 34.78 19.671 2.71v-18.771h-19.671v16.06Zm21.836 3 26.164 3.61v-22.671h-26.164v19.06Zm0-40.78v19.297h26.164V599.5l-26.164 3.61ZM1562.133 611.229c0 .159-.159.159-.159.159h-.159c-.159 0-.159-.16-.318-.318 0 0-.159-.16-.159-.318 0-.16 0-.16.16-.16l.317.16c.16.159.318.318.318.477m-2.86-1.59c0-.794-.318-1.271-.795-1.271 0 0 0 .159-.16.159v.318h.478c0 .318.159.477.159.794h.317m5.563-.794c.318 0 .477.318.635.794h.318c-.159-.159-.159-.317-.159-.476 0-.16 0-.318-.159-.477-.158-.16-.317-.318-.476-.318 0 0-.16.159-.318.159 0 .159.159.159.159.318m-4.768 2.543c-.159 0-.159 0-.159-.16 0-.158 0-.317.16-.476.317 0 .476-.16.476-.16.159 0 .159.16.159.16 0 .159-.16.318-.477.636h-.159m-1.748-.16c-.636-.317-.795-.794-.795-1.589 0-.476 0-.794.318-1.112a.874.874 0 0 1 .795-.477c.318 0 .476.16.794.477.16.477.318.953.318 1.43v.318h.16v-.159c.158 0 .158-.318.158-.953 0-.477 0-.954-.318-1.43-.318-.477-.636-.795-1.271-.795-.477 0-.954.318-1.113.794-.318.636-.381 1.113-.381 1.907 0 .636.222 1.272.858 1.907.159-.158.318-.158.477-.317m19.865 22.408c.16 0 .16-.064.16-.207 0-.35-.16-.762-.636-1.223-.477-.477-1.272-.779-2.225-.906-.16-.016-.318-.016-.318-.016-.159-.032-.159-.032-.318-.032a8.677 8.677 0 0 1-.636-.08c.477-1.477.636-2.78.636-3.925 0-1.589-.318-2.701-.954-3.655-.635-.954-1.27-1.43-2.066-1.59-.158.16-.158.16-.158.319.794.317 1.589.953 2.066 1.907.476 1.112.635 2.066.635 3.178 0 .89-.159 2.21-.794 3.894-.636.254-1.272.842-1.749 1.764 0 .143 0 .222.16.222 0 0 .158-.143.317-.413.318-.27.477-.54.795-.81.477-.27.794-.414 1.271-.414.795 0 1.59.112 2.066.334.636.207.954.43 1.113.684.159.238.318.46.477.667 0 .207.158.302.158.302m-14.62-23.044c-.16-.159-.16-.477-.16-.795 0-.635 0-.953.318-1.43.318-.318.636-.477.954-.477.477 0 .794.318 1.112.636.16.477.318.795.318 1.271 0 .795-.318 1.272-.953 1.43 0 0 .159.16.317.16.318 0 .477.158.795.317.159-.953.318-1.589.318-2.383 0-.954-.159-1.59-.477-2.066-.477-.477-.953-.636-1.59-.636-.476 0-.953.159-1.43.477-.317.476-.476.794-.476 1.271a4.4 4.4 0 0 0 .477 2.066c.159 0 .317.159.476.159m1.907 2.543c-2.066 1.43-3.655 2.066-4.926 2.066-1.113 0-2.225-.477-3.179-1.272.16.318.318.636.477.795l.954.954c.635.635 1.43.953 2.225.953 1.112 0 2.383-.636 3.973-1.748l1.43-.954c.318-.317.636-.635.636-1.112 0-.159 0-.318-.16-.318-.158-.318-.953-.795-2.542-1.271-1.43-.636-2.543-.954-3.178-.954-.477 0-1.272.318-2.384.954-.954.635-1.59 1.271-1.59 1.907 0 0 .16.159.318.477.954.794 1.907 1.27 2.86 1.27 1.272 0 2.862-.635 4.928-2.224v.318c.158 0 .158.159.158.159m3.656 32.103c.635 1.195 1.748 1.795 3.02 1.795.317 0 .635-.047.953-.143.318-.063.636-.174.794-.302.16-.11.318-.222.477-.35.318-.11.318-.19.477-.27l2.702-2.336c.635-.507 1.271-.95 2.066-1.335.635-.381 1.271-.635 1.589-.778a2.836 2.836 0 0 0 1.112-.572c.16-.239.318-.54.318-.922 0-.461-.318-.81-.635-1.065a3.233 3.233 0 0 0-.954-.54c-.318-.112-.636-.366-1.112-.795a4.286 4.286 0 0 1-.795-1.732l-.159-.922c-.159-.43-.159-.747-.318-.922 0-.047 0-.063-.159-.063s-.476.143-.635.413c-.318.27-.636.572-.954.89-.159.318-.636.604-.953.874-.477.27-.954.413-1.272.413-1.271 0-1.907-.35-2.384-1.033-.318-.508-.477-1.096-.635-1.764-.318-.27-.477-.413-.795-.413-.795 0-1.113.826-1.113 2.495V640.805c0 .143-.158.46-.158.953-.16.493-.16 1.052-.16 1.685l-.317 1.764v.027m-23.044-.841c1.478.216 3.178.679 5.101 1.384 1.923.7 3.1 1.065 3.528 1.065 1.113 0 2.035-.493 2.797-1.445.16-.308.16-.67.16-1.087 0-1.501-.907-3.4-2.718-5.705l-1.081-1.446c-.223-.302-.493-.763-.842-1.383a13.587 13.587 0 0 0-.874-1.43c-.207-.366-.54-.731-.97-1.097a3.264 3.264 0 0 0-1.414-.73c-.668.126-1.129.349-1.351.65-.223.303-.35.636-.382.986-.047.334-.143.556-.302.668-.158.095-.429.174-.794.254-.08 0-.223 0-.43.016h-.428c-.843 0-1.415.095-1.717.254-.397.46-.604.985-.604 1.542 0 .254.064.683.191 1.287.127.588.19 1.065.19 1.398 0 .652-.19 1.304-.587 1.955-.398.684-.604 1.192-.604 1.554.159.617 1.208 1.051 3.13 1.305m5.293-14.446c0-1.097.286-2.304.874-3.735.572-1.43 1.144-2.384 1.7-3.02-.031-.158-.11-.158-.238-.158l-.159-.16c-.46.478-1.017 1.59-1.684 3.18-.668 1.43-1.018 2.749-1.018 3.718 0 .715.175 1.335.493 1.876.35.524 1.192 1.287 2.527 2.256l1.685 1.097c1.795 1.557 2.749 2.638 2.749 3.274 0 .333-.159.667-.636 1.033-.318.381-.747.572-1.112.572-.032 0-.048.032-.048.111 0 .016.16.334.493.954.667.905 2.098 1.35 4.005 1.35 3.496 0 6.198-1.43 8.264-4.29 0-.795 0-1.288-.16-1.494v-.588c0-1.033.16-1.812.478-2.32.317-.51.635-.748 1.112-.748.318 0 .636.112.954.35.159-1.224.159-2.289.159-3.242 0-1.446 0-2.638-.318-3.75a8.377 8.377 0 0 0-.795-2.385l-.953-1.43c-.318-.477-.477-.953-.795-1.43-.159-.636-.318-1.113-.318-1.907-.477-.795-.795-1.59-1.271-2.384-.318-.795-.636-1.59-.954-2.225l-1.43 1.112c-1.59 1.113-2.86 1.59-3.973 1.59-.954 0-1.748-.16-2.225-.795l-.954-.795c0 .477-.159 1.113-.477 1.749l-1 1.907c-.446 1.112-.684 1.748-.732 2.225-.063.317-.111.635-.143.635l-1.192 2.384c-1.287 2.384-1.939 4.593-1.939 6.42 0 .366.032.748.096 1.129-.715-.493-1.065-1.176-1.065-2.066m11.379 15.034c-2.066 0-3.655.28-4.768.835v-.048c-.794.954-1.684 1.446-2.924 1.446-.779 0-2.003-.302-3.655-.906-1.669-.572-3.147-1.01-4.434-1.3a9.517 9.517 0 0 0-.874-.163 33.182 33.182 0 0 1-1.224-.218 9.221 9.221 0 0 1-1.129-.326c-.397-.125-.715-.29-.953-.488-.22-.2-.327-.426-.327-.678 0-.255.054-.526.162-.816.101-.175.213-.35.324-.508a3.08 3.08 0 0 0 .27-.493c.095-.143.159-.286.223-.445.063-.143.127-.286.158-.46.032-.16.064-.319.064-.478 0-.159-.064-.635-.19-1.478-.128-.826-.191-1.35-.191-1.573 0-.7.159-1.255.508-1.653.35-.397.684-.604 1.033-.604h1.828c.143 0 .365-.08.7-.27.11-.254.206-.46.27-.651.079-.191.11-.334.142-.398.032-.095.064-.19.096-.27.063-.111.143-.238.254-.365-.127-.16-.19-.366-.19-.62 0-.175 0-.334.031-.43 0-.571.27-1.382.842-2.447l.557-1.001c.46-.858.81-1.494 1.064-2.13.27-.635.557-1.589.874-2.86.255-1.113.859-2.225 1.812-3.338l1.192-1.43c.826-.954 1.367-1.748 1.669-2.384a5.12 5.12 0 0 0 .46-2.066c0-.318-.079-1.271-.254-2.86a47.163 47.163 0 0 1-.238-4.61c0-1.112.095-1.906.302-2.701.207-.795.572-1.59 1.112-2.225.477-.636 1.113-1.271 2.066-1.59.954-.317 2.066-.476 3.338-.476.477 0 .953 0 1.43.159.477 0 1.113.159 1.907.477.636.318 1.272.635 1.748 1.112.636.477 1.113 1.272 1.59 2.066.318.954.635 1.907.794 3.179.16.794.16 1.589.318 2.701 0 .954.16 1.59.16 2.066.158.477.158 1.113.317 1.908.159.635.318 1.27.636 1.748.317.635.635 1.271 1.112 1.907.477.794 1.113 1.589 1.748 2.543 1.43 1.589 2.543 3.337 3.179 5.085.794 1.59 1.271 3.655 1.271 5.864a10.8 10.8 0 0 1-.477 3.195c.318 0 .477.127.636.35.159.222.318.699.477 1.446l.159 1.176c.159.35.318.683.794.97.318.285.636.524 1.113.714.318.16.795.382 1.112.668.318.318.477.651.477 1.001 0 .54-.159.938-.477 1.224-.317.318-.635.54-1.112.683-.318.16-.954.477-1.907.925-.795.47-1.59 1.041-2.384 1.716l-1.59 1.353a8.806 8.806 0 0 1-1.747 1.335c-.477.286-1.113.429-1.749.429l-1.112-.127c-1.272-.334-2.066-.97-2.543-1.939-2.543-.308-4.609-.46-5.88-.46M1517.216 615.865c-.278.216-5.194 2.986-5.194 9.145 0 7.124 6.255 9.644 6.443 9.706-.03.154-.994 3.452-3.298 6.812-2.055 2.957-4.2 5.91-7.465 5.91-3.264 0-4.105-1.897-7.873-1.897-3.672 0-4.978 1.959-7.964 1.959-2.986 0-5.07-2.736-7.465-6.097-2.774-3.946-5.016-10.076-5.016-15.894 0-9.332 6.068-14.281 12.04-14.281 3.173 0 5.818 2.083 7.81 2.083 1.896 0 4.853-2.208 8.463-2.208 1.368 0 6.284.125 9.52 4.762Zm-11.233-8.713c1.493-1.771 2.55-4.23 2.55-6.687 0-.34-.03-.687-.092-.965-2.429.091-5.319 1.618-7.061 3.639-1.368 1.555-2.645 4.013-2.645 6.504 0 .375.062.75.09.87.154.028.404.062.654.062 2.18 0 4.92-1.46 6.504-3.423ZM1495.32 1009.5c-13.233 0-24 10.766-24.003 24 .004 13.234 10.77 24 24.004 24 13.234 0 24-10.77 24-24 0-13.234-10.766-24-24-24Zm9.494 32.005c-2.35-.697-5.048-1.164-8.133-1.273v-5.372h9.109c-.098 2.494-.456 4.69-.976 6.645Zm-19.005-16.014c2.358.7 5.06 1.172 8.152 1.281v5.368h-9.128c.095-2.497.452-4.694.976-6.649Zm-.953 9.369h9.105v5.368c-3.078.11-5.767.573-8.118 1.27-.527-1.956-.89-4.148-.987-6.638Zm20.934-2.72h-9.11v-5.372c3.078-.109 5.768-.572 8.119-1.27.527 1.96.893 4.152.99 6.642Zm10.766 0h-8.024c-.098-2.837-.509-5.338-1.115-7.553a24.613 24.613 0 0 0 5.458-3.078 21.157 21.157 0 0 1 3.68 10.631Zm-5.36-12.774a22.105 22.105 0 0 1-4.627 2.622c-1.62-4.234-3.97-7.18-6.065-9.128 4.2 1.055 7.892 3.372 10.691 6.506Zm-7.241 3.541c-2.102.618-4.51 1.036-7.274 1.141v-10.777c2.045 1.461 5.255 4.445 7.274 9.636Zm-9.994-9.666v10.807c-2.78-.105-5.206-.53-7.32-1.156 2.023-5.236 5.26-8.205 7.32-9.651Zm-3.824-.38c-2.09 1.947-4.441 4.893-6.06 9.127a22.106 22.106 0 0 1-4.627-2.622c2.795-3.134 6.49-5.451 10.687-6.506Zm-12.367 8.648a24.695 24.695 0 0 0 5.459 3.074c-.607 2.215-1.018 4.717-1.115 7.553h-8.024a21.12 21.12 0 0 1 3.68-10.627Zm4.344 13.35c.097 2.838.512 5.339 1.115 7.558a24.609 24.609 0 0 0-5.459 3.074 21.16 21.16 0 0 1-3.684-10.631h8.028Zm-2.66 12.775a22.08 22.08 0 0 1 4.626-2.622c1.62 4.23 3.967 7.18 6.061 9.128-4.2-1.055-7.896-3.372-10.687-6.506Zm7.233-3.541c2.102-.618 4.509-1.036 7.27-1.141v10.78c-2.038-1.46-5.247-4.448-7.27-9.639Zm9.994 9.663v-10.804c2.776.105 5.195.527 7.3 1.149-2.019 5.236-5.24 8.208-7.3 9.655Zm3.827.384c2.09-1.948 4.442-4.894 6.061-9.128a21.975 21.975 0 0 1 4.623 2.622c-2.796 3.134-6.487 5.451-10.684 6.506Zm12.367-8.65a24.695 24.695 0 0 0-5.458-3.073c.606-2.22 1.017-4.717 1.115-7.557h8.024a21.121 21.121 0 0 1-3.68 10.63ZM2502.199 463.742l.152.08 24 13.5c1.644.924 1.697 3.245.159 4.26l-.16.097-24 13.5a2.5 2.5 0 0 1-2.597-4.269l.146-.089 15.682-8.821h-842.219l15.683 8.821a2.5 2.5 0 0 1 1.032 3.253l-.08.152a2.5 2.5 0 0 1-3.252 1.032l-.152-.08-24-13.5c-1.644-.924-1.697-3.245-.159-4.26l.16-.097 24-13.5a2.5 2.5 0 0 1 2.597 4.269l-.146.089L1673.36 477h842.221l-15.683-8.821a2.5 2.5 0 0 1-1.032-3.253l.08-.152a2.5 2.5 0 0 1 3.252-1.032ZM438.4 410.615l.098.16 13.5 24a2.5 2.5 0 0 1-4.269 2.597l-.089-.146-8.822-15.685v156.917l8.822-15.684a2.5 2.5 0 0 1 4.437 2.3l-.08.152-13.5 24c-.924 1.644-3.245 1.697-4.26.159l-.097-.16-13.5-24a2.5 2.5 0 0 1 4.269-2.597l.089.146 8.82 15.681V421.544l-8.82 15.682a2.5 2.5 0 0 1-3.253 1.032l-.152-.08a2.5 2.5 0 0 1-1.032-3.252l.08-.152 13.5-24c.924-1.644 3.245-1.697 4.26-.159ZM943.4 410.615l.098.16 13.5 24a2.5 2.5 0 0 1-4.269 2.597l-.089-.146-8.821-15.683v156.913l8.821-15.682a2.5 2.5 0 0 1 4.437 2.3l-.08.152-13.5 24c-.924 1.644-3.245 1.697-4.26.159l-.097-.16-13.5-24a2.5 2.5 0 0 1 4.269-2.597l.089.146 8.821 15.683V421.542l-8.821 15.684a2.5 2.5 0 0 1-3.253 1.032l-.152-.08a2.5 2.5 0 0 1-1.032-3.252l.08-.152 13.5-24c.924-1.644 3.245-1.697 4.26-.159ZM1497.4 270.615l.098.16 13.5 24a2.5 2.5 0 0 1-4.269 2.597l-.089-.146-8.822-15.685v79.917l8.822-15.684a2.5 2.5 0 0 1 4.437 2.3l-.08.152-13.5 24c-.924 1.644-3.245 1.697-4.26.159l-.097-.16-13.5-24a2.5 2.5 0 0 1 4.269-2.597l.089.146 8.82 15.681v-79.911l-8.82 15.682a2.5 2.5 0 0 1-3.253 1.032l-.152-.08a2.5 2.5 0 0 1-1.032-3.252l.08-.152 13.5-24c.924-1.644 3.245-1.697 4.26-.159ZM2695.707 586.615l.097.16 13.5 24a2.5 2.5 0 0 1-4.269 2.597l-.089-.146-8.821-15.683v203.913l8.821-15.682a2.5 2.5 0 0 1 4.437 2.3l-.08.152-13.5 24c-.924 1.644-3.245 1.697-4.26.159l-.097-.16-13.5-24a2.5 2.5 0 0 1 4.269-2.597l.089.146 8.821 15.683V597.542l-8.821 15.684a2.5 2.5 0 0 1-3.253 1.032l-.152-.08a2.5 2.5 0 0 1-1.032-3.252l.08-.152 13.5-24c.924-1.644 3.245-1.697 4.26-.159Z" fill="#000" fill-rule="nonzero"/><rect stroke="#000" stroke-width="2" fill="#FFF" x="1929.375" y="820.5" width="318" height="118" rx="16"/><path d="m1972.095 900.5 9.72-33.54h.24l9.54 33.54h5.28l10.44-41.4v-.6h-5.16l-7.98 33.84h-.24l-9.36-33.84h-5.4l-9.24 33.84h-.24l-8.04-33.84h-5.1v.6l10.32 41.4h5.22Zm51.96.54c6.54 0 11.94-3.78 12.78-9.42h-5.04c-.84 3.24-3.72 4.92-7.74 4.92-5.7 0-8.64-4.02-8.64-9.84h21.84v-2.46c0-8.52-4.62-14.94-13.26-14.94-9.48 0-13.86 7.02-13.86 15.9 0 9 4.86 15.84 13.92 15.84Zm7.98-18.54h-16.56c.18-4.8 2.76-8.7 8.52-8.7 5.46 0 8.04 3.84 8.04 8.7Zm28.14 18.54c8.04 0 12.96-6 13.02-15.9-.06-9.06-4.38-15.84-13.02-15.84-4.56 0-7.62 2.1-9.24 4.8h-.24v-18h-5.04v44.4h4.38l.66-4.26h.24c1.62 2.7 4.68 4.8 9.24 4.8Zm-.84-4.5c-6.12 0-8.76-5.28-8.76-11.4 0-6.06 2.64-11.34 8.76-11.34 6.36 0 8.76 5.22 8.76 11.34 0 6.18-2.4 11.4-8.76 11.4Zm42.12 3.96 3.96-10.98h18.36l3.96 10.98h5.58v-.6l-15.48-41.4h-6.42l-15.42 41.4v.6h5.46Zm20.64-15.66h-15l7.38-20.52h.24l7.38 20.52Zm24.24 15.66v-15.24h10.26c8.46 0 13.86-5.46 13.86-13.5 0-7.8-5.28-13.26-13.86-13.26h-15.48v42h5.22Zm9.6-20.04h-9.6v-17.22h9.6c5.64 0 9.12 3.12 9.12 8.52 0 5.64-3.3 8.7-9.12 8.7Zm29.4 20.04v-42h-5.28v42h5.28Zm21.54.54c6.6 0 12.12-3.24 12.12-8.88 0-5.28-2.94-7.56-8.7-8.88l-4.8-.9c-3.36-.54-5.34-1.92-5.34-4.32 0-3 2.58-4.5 6.3-4.5 3.84 0 6.72 1.74 6.9 5.64h4.92c0-6.12-4.92-9.9-11.82-9.9-6.78 0-11.16 3.66-11.16 8.76 0 4.5 2.76 7.56 7.8 8.58l6.12 1.14c3.3.72 4.68 2.34 4.68 4.38 0 2.94-2.7 4.38-7.02 4.38-4.38 0-7.5-2.1-7.5-6.18h-5.04c.18 6.72 5.28 10.68 12.54 10.68Z" fill="#000" fill-rule="nonzero"/><rect stroke="#000" stroke-width="2" fill="#FFF" x="2574.625" y="820.5" width="238" height="118" rx="16"/><path d="M2617.755 900.5v-15.24h10.26c8.46 0 13.86-5.46 13.86-13.5 0-7.8-5.28-13.26-13.86-13.26h-15.48v42h5.22Zm9.6-20.04h-9.6v-17.22h9.6c5.64 0 9.12 3.12 9.12 8.52 0 5.64-3.3 8.7-9.12 8.7Zm28.56 20.04v-44.4h-5.04v44.4h5.04Zm21.66.54c9.6 0 13.86-7.08 13.86-15.84 0-8.82-4.38-15.9-13.86-15.9s-13.86 7.08-13.86 15.9 4.26 15.84 13.86 15.84Zm0-4.5c-6.18 0-8.76-4.74-8.76-11.34 0-6.54 2.52-11.4 8.76-11.4s8.76 4.8 8.76 11.4c0 6.6-2.52 11.34-8.76 11.34Zm34.44 3.96 11.88-30.06v-.6h-5.22l-9.06 24.78h-.24l-9.42-24.78h-5.22v.6l12.06 30.06h5.22Zm29.1.54c6.54 0 11.94-3.78 12.78-9.42h-5.04c-.84 3.24-3.72 4.92-7.74 4.92-5.7 0-8.64-4.02-8.64-9.84h21.84v-2.46c0-8.52-4.62-14.94-13.26-14.94-9.48 0-13.86 7.02-13.86 15.9 0 9 4.86 15.84 13.92 15.84Zm7.98-18.54h-16.56c.18-4.8 2.76-8.7 8.52-8.7 5.46 0 8.04 3.84 8.04 8.7Zm18.66 18v-14.88c0-7.2 2.64-11.28 8.46-11.28h2.4v-4.86h-2.76c-3.78 0-6.84 2.1-8.1 5.52h-.24l-.42-5.16h-4.38v30.66h5.04Z" fill="#000" fill-rule="nonzero"/></g></svg>
