<svg width="250" height="84" xmlns="http://www.w3.org/2000/svg"><path d="M14.872 67.044c5.184 0 9.288-2.088 11.52-5.832h.288l.432 5.184h5.112V41.628c0-6.984-4.968-12.672-14.4-12.672-8.064 0-13.968 4.68-13.968 11.736h5.832c.072-3.528 2.736-6.552 8.136-6.552 5.976 0 8.496 3.528 8.496 7.632v2.376h-9.072c-10.8 0-15.192 5.328-15.192 11.52 0 6.408 4.824 11.376 12.816 11.376Zm1.08-5.04c-5.328 0-7.776-2.736-7.776-6.408 0-4.32 3.096-6.624 9.072-6.624h9.072v3.168c0 5.328-4.104 9.864-10.368 9.864Zm32.56 4.392v-53.28h-6.048v53.28h6.048Zm16.288 0v-53.28h-6.048v53.28H64.8Zm24.064.648c7.848 0 14.328-4.536 15.336-11.304h-6.048c-1.008 3.888-4.464 5.904-9.288 5.904-6.84 0-10.368-4.824-10.368-11.808h26.208v-2.952c0-10.224-5.544-17.928-15.912-17.928-11.376 0-16.632 8.424-16.632 19.08 0 10.8 5.832 19.008 16.704 19.008Zm9.576-22.248H78.568c.216-5.76 3.312-10.44 10.224-10.44 6.552 0 9.648 4.608 9.648 10.44Zm23.272 38.088 20.376-52.56v-.72h-6.336l-10.8 28.872h-.288l-11.16-28.872h-6.48v.72l14.76 35.568.072.216-6.264 16.056v.72h6.12Zm41.552-15.84c10.944 0 16.632-6.768 17.136-15.48h-11.16c-.36 3.312-2.664 5.76-6.264 5.76-4.68 0-7.344-2.952-7.344-9.792 0-6.768 2.664-9.72 7.344-9.72 3.6 0 5.904 2.448 6.264 5.76h11.16c-.504-8.712-6.264-15.48-17.424-15.48-12.024 0-18.648 8.064-18.648 19.44 0 11.448 6.912 19.512 18.936 19.512Zm33.912 0c4.68 0 7.992-1.656 10.08-4.032h.288l.792 3.384h9.936V41.628c0-7.848-6.192-13.536-16.488-13.536-11.088 0-16.2 6.048-16.2 13.104h10.368c0-2.304 2.016-4.176 5.472-4.176 4.104 0 5.76 2.016 5.76 4.608v2.016h-8.064c-10.368 0-15.12 4.608-15.12 11.592 0 6.696 4.68 11.808 13.176 11.808Zm2.808-8.64c-3.312 0-5.04-1.584-5.04-3.744 0-2.016 1.584-3.6 5.112-3.6h7.128v1.584c0 3.096-2.664 5.76-7.2 5.76Zm47.96 7.992v-9.648h-4.32c-3.312 0-4.824-1.512-4.824-5.04V38.172h9V28.74h-9v-9.864h-10.584v9.864h-6.624v9.432h6.12v16.2c0 6.84 3.888 12.024 12.6 12.024h7.632Z" fill="#0091FF" fill-rule="nonzero"/></svg>